<svg width="455" height="970" viewBox="0 0 455 970" fill="none" xmlns="http://www.w3.org/2000/svg">
<g clip-path="url(#clip0_131_42)">
<rect width="455" height="970" rx="45" fill="url(#paint0_linear_131_42)"/>
<ellipse cx="168.583" cy="501.668" rx="213" ry="345" transform="rotate(-94.3699 168.583 501.668)" fill="#28007D" fill-opacity="0.36"/>
<ellipse cx="518.356" cy="774" rx="324" ry="345" fill="#EC73F7" fill-opacity="0.2"/>
<ellipse cx="82.3564" cy="920" rx="213" ry="345" fill="#1299FB" fill-opacity="0.2"/>
<ellipse cx="82.3564" cy="98.5" rx="242" ry="244.5" fill="#EC73F7" fill-opacity="0.2"/>
<ellipse cx="44.9937" cy="1005.81" rx="140.946" ry="126.855" transform="rotate(-15.4435 44.9937 1005.81)" fill="#EC73F7" fill-opacity="0.2"/>
<path d="M96.6099 966.351C86.4056 929.414 72.4245 894.771 57.0859 868.417C41.7473 842.063 26.0164 825.656 12.6152 822.035C-0.785983 818.415 -11.0142 827.808 -16.2995 848.589C-21.5848 869.371 -21.5946 900.234 -16.3273 935.837L46.3564 980.234L96.6099 966.351Z" fill="#EC73F7" fill-opacity="0.2"/>
<path d="M90.536 423V362.8H98.792V388.686H130.526V362.8H138.782V423H130.526V395.996H98.792V423H90.536ZM173.631 423C168.815 423 164.543 422.111 160.817 420.334C157.09 418.499 154.166 415.948 152.045 412.68C149.981 409.355 148.949 405.485 148.949 401.07C148.949 396.713 149.837 392.814 151.615 389.374C153.392 385.877 155.857 383.125 159.011 381.118C162.164 379.111 165.833 378.108 170.019 378.108C174.548 378.108 178.303 379.083 181.285 381.032C184.323 382.981 186.588 385.619 188.079 388.944C189.569 392.212 190.315 395.881 190.315 399.952C190.315 400.583 190.286 401.242 190.229 401.93C190.229 402.618 190.171 403.22 190.057 403.736H157.377C157.663 406.431 158.552 408.724 160.043 410.616C161.533 412.451 163.425 413.855 165.719 414.83C168.069 415.747 170.649 416.206 173.459 416.206H184.897V423H173.631ZM157.291 398.146H182.317C182.317 397.057 182.202 395.91 181.973 394.706C181.743 393.445 181.342 392.241 180.769 391.094C180.195 389.89 179.421 388.829 178.447 387.912C177.529 386.937 176.354 386.163 174.921 385.59C173.545 385.017 171.911 384.73 170.019 384.73C168.012 384.73 166.235 385.131 164.687 385.934C163.196 386.679 161.906 387.711 160.817 389.03C159.727 390.291 158.896 391.725 158.323 393.33C157.749 394.935 157.405 396.541 157.291 398.146ZM218.405 424.032C214.163 424.032 210.493 423.029 207.397 421.022C204.301 418.958 201.922 416.177 200.259 412.68C198.597 409.183 197.765 405.313 197.765 401.07C197.765 396.77 198.683 392.9 200.517 389.46C202.352 385.963 204.989 383.211 208.429 381.204C211.869 379.14 215.997 378.108 220.813 378.108C225.457 378.108 229.442 379.111 232.767 381.118C236.093 383.125 238.644 385.848 240.421 389.288C242.256 392.728 243.173 396.569 243.173 400.812V423H235.175V414.056H235.003C234.143 415.719 232.968 417.324 231.477 418.872C230.044 420.363 228.238 421.595 226.059 422.57C223.881 423.545 221.329 424.032 218.405 424.032ZM220.469 417.238C223.336 417.238 225.859 416.55 228.037 415.174C230.273 413.741 231.993 411.791 233.197 409.326C234.459 406.803 235.089 403.994 235.089 400.898C235.089 397.859 234.487 395.136 233.283 392.728C232.137 390.32 230.474 388.428 228.295 387.052C226.117 385.619 223.565 384.902 220.641 384.902C217.545 384.902 214.879 385.619 212.643 387.052C210.465 388.485 208.773 390.435 207.569 392.9C206.423 395.308 205.849 398.06 205.849 401.156C205.849 404.137 206.423 406.861 207.569 409.326C208.716 411.734 210.379 413.655 212.557 415.088C214.736 416.521 217.373 417.238 220.469 417.238ZM255.541 423V360.22H263.453V423H255.541ZM275.459 423V378.452C275.459 375.413 276.147 372.719 277.523 370.368C278.899 368.017 280.763 366.183 283.113 364.864C285.464 363.488 288.13 362.8 291.111 362.8H312.525V370.11H292.057C289.535 370.11 287.499 370.913 285.951 372.518C284.461 374.066 283.715 376.044 283.715 378.452V390.664H309.343V397.974H283.715V423H275.459ZM321.597 423V379.14H329.595V423H321.597ZM325.639 372.174C324.205 372.174 322.944 371.658 321.855 370.626C320.823 369.537 320.307 368.275 320.307 366.842C320.307 365.409 320.823 364.176 321.855 363.144C322.944 362.055 324.205 361.51 325.639 361.51C327.072 361.51 328.305 362.055 329.337 363.144C330.426 364.176 330.971 365.409 330.971 366.842C330.971 368.275 330.426 369.537 329.337 370.626C328.305 371.658 327.072 372.174 325.639 372.174ZM356.823 423C352.924 423 349.857 421.882 347.621 419.646C345.442 417.41 344.353 414.371 344.353 410.53V368.132H352.265V410.014C352.265 411.906 352.781 413.425 353.813 414.572C354.902 415.661 356.393 416.206 358.285 416.206H367.143V423H356.823ZM336.785 385.934V379.14H367.315V385.934H336.785Z" fill="white"/>
<path d="M89.7406 416.451L88.6149 476.64L96.8694 476.795L97.3535 450.913L129.082 451.507L128.598 477.388L136.852 477.543L137.978 417.353L129.724 417.199L129.219 444.198L97.4902 443.605L97.9952 416.605L89.7406 416.451ZM172.821 418.005C168.006 417.915 163.718 418.723 159.959 420.431C156.199 422.195 153.228 424.691 151.045 427.919C148.92 431.205 147.815 435.055 147.733 439.469C147.651 443.826 148.467 447.741 150.18 451.213C151.891 454.743 154.305 457.541 157.42 459.606C160.535 461.671 164.185 462.743 168.37 462.821C172.898 462.906 176.671 462.002 179.689 460.109C182.763 458.216 185.077 455.622 186.629 452.325C188.181 449.085 188.995 445.431 189.071 441.361C189.083 440.73 189.066 440.07 189.022 439.381C189.035 438.694 188.989 438.091 188.884 437.573L156.209 436.961C156.546 434.273 157.478 431.996 159.003 430.132C160.528 428.326 162.446 426.957 164.757 426.025C167.125 425.152 169.713 424.742 172.522 424.794L183.958 425.008L184.085 418.215L172.821 418.005ZM156.019 442.549L181.04 443.017C181.02 444.106 180.884 445.25 180.632 446.45C180.379 447.707 179.955 448.903 179.361 450.039C178.765 451.232 177.971 452.278 176.98 453.177C176.044 454.134 174.855 454.886 173.411 455.432C172.024 455.98 170.385 456.236 168.494 456.2C166.487 456.163 164.718 455.728 163.185 454.897C161.709 454.124 160.438 453.068 159.374 451.729C158.308 450.448 157.504 448.999 156.961 447.383C156.417 445.767 156.103 444.156 156.019 442.549ZM217.607 417.81C213.365 417.731 209.678 418.665 206.545 420.614C203.411 422.62 200.98 425.355 199.252 428.821C197.524 432.286 196.621 436.14 196.541 440.382C196.461 444.681 197.306 448.568 199.076 452.042C200.845 455.573 203.43 458.373 206.832 460.444C210.233 462.572 214.341 463.681 219.156 463.771C223.799 463.858 227.802 462.929 231.164 460.985C234.526 459.041 237.128 456.366 238.969 452.96C240.868 449.555 241.857 445.731 241.936 441.489L242.351 419.305L234.355 419.156L234.188 428.098L234.016 428.095C233.187 426.416 232.042 424.789 230.58 423.214C229.175 421.696 227.392 420.43 225.232 419.415C223.072 418.4 220.531 417.865 217.607 417.81ZM219.544 424.642C222.41 424.695 224.919 425.43 227.072 426.847C229.28 428.322 230.964 430.303 232.121 432.79C233.335 435.336 233.913 438.157 233.855 441.252C233.799 444.29 233.146 447.002 231.897 449.387C230.706 451.773 229.008 453.634 226.804 454.969C224.599 456.361 222.034 457.03 219.111 456.975C216.015 456.917 213.363 456.151 211.155 454.676C209.003 453.202 207.348 451.222 206.191 448.734C205.089 446.305 204.568 443.543 204.625 440.447C204.681 437.467 205.305 434.754 206.498 432.311C207.689 429.925 209.388 428.036 211.593 426.643C213.798 425.251 216.448 424.584 219.544 424.642ZM254.717 419.536L253.543 482.305L261.454 482.453L262.627 419.684L254.717 419.536ZM274.632 419.909L273.799 464.449C273.742 467.487 274.351 470.194 275.625 472.569C276.957 474.945 278.786 476.814 281.111 478.176C283.493 479.597 286.174 480.335 289.155 480.391L310.565 480.791L310.702 473.483L290.238 473.1C287.715 473.053 285.695 472.212 284.178 470.578C282.716 469.003 282.008 467.011 282.053 464.603L282.281 452.394L307.905 452.873L308.042 445.564L282.418 445.085L282.886 420.063L274.632 419.909ZM320.761 420.772L319.941 464.624L327.937 464.774L328.758 420.921L320.761 420.772ZM323.852 471.664C322.419 471.638 321.148 472.13 320.04 473.141C318.987 474.211 318.448 475.463 318.421 476.896C318.394 478.329 318.887 479.571 319.9 480.622C320.968 481.732 322.219 482.3 323.652 482.326C325.085 482.353 326.328 481.832 327.38 480.762C328.489 479.75 329.056 478.528 329.083 477.095C329.11 475.662 328.589 474.391 327.52 473.281C326.508 472.23 325.285 471.691 323.852 471.664ZM355.981 421.43C352.083 421.357 348.995 422.418 346.718 424.612C344.498 426.807 343.352 429.824 343.28 433.665L342.487 476.056L350.398 476.204L351.181 434.329C351.216 432.437 351.761 430.928 352.814 429.801C353.923 428.732 355.424 428.215 357.316 428.25L366.172 428.416L366.299 421.623L355.981 421.43ZM335.253 458.115L335.126 464.908L365.651 465.479L365.778 458.686L335.253 458.115Z" fill="white" fill-opacity="0.25"/>
<ellipse cx="545" cy="309.5" rx="242" ry="244.5" fill="#EC73F7" fill-opacity="0.2"/>
</g>
<defs>
<linearGradient id="paint0_linear_131_42" x1="227.5" y1="0" x2="227.5" y2="970" gradientUnits="userSpaceOnUse">
<stop stop-color="#002876"/>
<stop offset="0.515" stop-color="#8E24B4"/>
<stop offset="1" stop-color="#6B0843"/>
</linearGradient>
<clipPath id="clip0_131_42">
<rect width="455" height="970" rx="45" fill="white"/>
</clipPath>
</defs>
</svg>
