<svg width="1080" height="720" viewBox="0 0 300 80" fill="none" xmlns="http://www.w3.org/2000/svg">
<path d="M6.536 63V2.8H14.792V28.686H46.526V2.8H54.782V63H46.526V35.996H14.792V63H6.536ZM89.6306 63C84.8146 63 80.5433 62.1113 76.8166 60.334C73.0899 58.4993 70.1659 55.948 68.0446 52.68C65.9806 49.3547 64.9486 45.4847 64.9486 41.07C64.9486 36.7127 65.8373 32.814 67.6146 29.374C69.3919 25.8767 71.8573 23.1247 75.0106 21.118C78.1639 19.1113 81.8333 18.108 86.0186 18.108C90.5479 18.108 94.3033 19.0827 97.2846 21.032C100.323 22.9813 102.588 25.6187 104.079 28.944C105.569 32.212 106.315 35.8813 106.315 39.952C106.315 40.5827 106.286 41.242 106.229 41.93C106.229 42.618 106.171 43.22 106.057 43.736H73.3766C73.6633 46.4307 74.5519 48.724 76.0426 50.616C77.5333 52.4507 79.4253 53.8553 81.7186 54.83C84.0693 55.7473 86.6493 56.206 89.4586 56.206H100.897V63H89.6306ZM73.2906 38.146H98.3166C98.3166 37.0567 98.2019 35.91 97.9726 34.706C97.7433 33.4447 97.3419 32.2407 96.7686 31.094C96.1953 29.89 95.4213 28.8293 94.4466 27.912C93.5293 26.9373 92.3539 26.1633 90.9206 25.59C89.5446 25.0167 87.9106 24.73 86.0186 24.73C84.0119 24.73 82.2346 25.1313 80.6866 25.934C79.1959 26.6793 77.9059 27.7113 76.8166 29.03C75.7273 30.2913 74.8959 31.7247 74.3226 33.33C73.7493 34.9353 73.4053 36.5407 73.2906 38.146ZM134.405 64.032C130.163 64.032 126.493 63.0287 123.397 61.022C120.301 58.958 117.922 56.1773 116.259 52.68C114.597 49.1827 113.765 45.3127 113.765 41.07C113.765 36.77 114.683 32.9 116.517 29.46C118.352 25.9627 120.989 23.2107 124.429 21.204C127.869 19.14 131.997 18.108 136.813 18.108C141.457 18.108 145.442 19.1113 148.767 21.118C152.093 23.1247 154.644 25.848 156.421 29.288C158.256 32.728 159.173 36.5693 159.173 40.812V63H151.175V54.056H151.003C150.143 55.7187 148.968 57.324 147.477 58.872C146.044 60.3627 144.238 61.5953 142.059 62.57C139.881 63.5447 137.329 64.032 134.405 64.032ZM136.469 57.238C139.336 57.238 141.859 56.55 144.037 55.174C146.273 53.7407 147.993 51.7913 149.197 49.326C150.459 46.8033 151.089 43.994 151.089 40.898C151.089 37.8593 150.487 35.136 149.283 32.728C148.137 30.32 146.474 28.428 144.295 27.052C142.117 25.6187 139.565 24.902 136.641 24.902C133.545 24.902 130.879 25.6187 128.643 27.052C126.465 28.4853 124.773 30.4347 123.569 32.9C122.423 35.308 121.849 38.06 121.849 41.156C121.849 44.1373 122.423 46.8607 123.569 49.326C124.716 51.734 126.379 53.6547 128.557 55.088C130.736 56.5213 133.373 57.238 136.469 57.238ZM171.541 63V0.219998H179.453V63H171.541ZM191.459 63V18.452C191.459 15.4133 192.147 12.7187 193.523 10.368C194.899 8.01733 196.763 6.18266 199.113 4.86399C201.464 3.488 204.13 2.8 207.111 2.8H228.525V10.11H208.057C205.535 10.11 203.499 10.9127 201.951 12.518C200.461 14.066 199.715 16.044 199.715 18.452V30.664H225.343V37.974H199.715V63H191.459ZM237.597 63V19.14H245.595V63H237.597ZM241.639 12.174C240.205 12.174 238.944 11.658 237.855 10.626C236.823 9.53666 236.307 8.27533 236.307 6.842C236.307 5.40866 236.823 4.176 237.855 3.144C238.944 2.05466 240.205 1.51 241.639 1.51C243.072 1.51 244.305 2.05466 245.337 3.144C246.426 4.176 246.971 5.40866 246.971 6.842C246.971 8.27533 246.426 9.53666 245.337 10.626C244.305 11.658 243.072 12.174 241.639 12.174ZM272.823 63C268.924 63 265.857 61.882 263.621 59.646C261.442 57.41 260.353 54.3713 260.353 50.53V8.132H268.265V50.014C268.265 51.906 268.781 53.4253 269.813 54.572C270.902 55.6613 272.393 56.206 274.285 56.206H283.143V63H272.823ZM252.785 25.934V19.14H283.315V25.934H252.785Z" fill="white"/>
<path d="M9.536 67V6.8H17.792V32.686H49.526V6.8H57.782V67H49.526V39.996H17.792V67H9.536ZM92.6306 67C87.8146 67 83.5433 66.1113 79.8166 64.334C76.0899 62.4993 73.1659 59.948 71.0446 56.68C68.9806 53.3547 67.9486 49.4847 67.9486 45.07C67.9486 40.7127 68.8373 36.814 70.6146 33.374C72.3919 29.8767 74.8573 27.1247 78.0106 25.118C81.1639 23.1113 84.8333 22.108 89.0186 22.108C93.5479 22.108 97.3033 23.0827 100.285 25.032C103.323 26.9813 105.588 29.6187 107.079 32.944C108.569 36.212 109.315 39.8813 109.315 43.952C109.315 44.5827 109.286 45.242 109.229 45.93C109.229 46.618 109.171 47.22 109.057 47.736H76.3766C76.6633 50.4307 77.5519 52.724 79.0426 54.616C80.5333 56.4507 82.4253 57.8553 84.7186 58.83C87.0693 59.7473 89.6493 60.206 92.4586 60.206H103.897V67H92.6306ZM76.2906 42.146H101.317C101.317 41.0567 101.202 39.91 100.973 38.706C100.743 37.4447 100.342 36.2407 99.7686 35.094C99.1953 33.89 98.4213 32.8293 97.4466 31.912C96.5293 30.9373 95.3539 30.1633 93.9206 29.59C92.5446 29.0167 90.9106 28.73 89.0186 28.73C87.0119 28.73 85.2346 29.1313 83.6866 29.934C82.1959 30.6793 80.9059 31.7113 79.8166 33.03C78.7273 34.2913 77.8959 35.7247 77.3226 37.33C76.7493 38.9353 76.4053 40.5407 76.2906 42.146ZM137.405 68.032C133.163 68.032 129.493 67.0287 126.397 65.022C123.301 62.958 120.922 60.1773 119.259 56.68C117.597 53.1827 116.765 49.3127 116.765 45.07C116.765 40.77 117.683 36.9 119.517 33.46C121.352 29.9627 123.989 27.2107 127.429 25.204C130.869 23.14 134.997 22.108 139.813 22.108C144.457 22.108 148.442 23.1113 151.767 25.118C155.093 27.1247 157.644 29.848 159.421 33.288C161.256 36.728 162.173 40.5693 162.173 44.812V67H154.175V58.056H154.003C153.143 59.7187 151.968 61.324 150.477 62.872C149.044 64.3627 147.238 65.5953 145.059 66.57C142.881 67.5447 140.329 68.032 137.405 68.032ZM139.469 61.238C142.336 61.238 144.859 60.55 147.037 59.174C149.273 57.7407 150.993 55.7913 152.197 53.326C153.459 50.8033 154.089 47.994 154.089 44.898C154.089 41.8593 153.487 39.136 152.283 36.728C151.137 34.32 149.474 32.428 147.295 31.052C145.117 29.6187 142.565 28.902 139.641 28.902C136.545 28.902 133.879 29.6187 131.643 31.052C129.465 32.4853 127.773 34.4347 126.569 36.9C125.423 39.308 124.849 42.06 124.849 45.156C124.849 48.1373 125.423 50.8607 126.569 53.326C127.716 55.734 129.379 57.6547 131.557 59.088C133.736 60.5213 136.373 61.238 139.469 61.238ZM174.541 67V4.22H182.453V67H174.541ZM194.459 67V22.452C194.459 19.4133 195.119 16.7187 196.437 14.368C197.813 12.0173 199.677 10.1827 202.027 8.86399C204.435 7.488 207.13 6.8 210.111 6.8H231.525V14.11H211.057C208.535 14.11 206.499 14.9127 204.951 16.518C203.461 18.066 202.715 20.044 202.715 22.452V34.664H228.343V41.974H202.715V67H194.459ZM240.597 67V23.14H248.595V67H240.597ZM244.639 16.174C243.205 16.174 241.944 15.658 240.855 14.626C239.823 13.5367 239.307 12.2753 239.307 10.842C239.307 9.40866 239.823 8.176 240.855 7.144C241.944 6.05466 243.205 5.51 244.639 5.51C246.072 5.51 247.305 6.05466 248.337 7.144C249.426 8.176 249.971 9.40866 249.971 10.842C249.971 12.2753 249.426 13.5367 248.337 14.626C247.305 15.658 246.072 16.174 244.639 16.174ZM275.823 67C271.924 67 268.857 65.882 266.621 63.646C264.442 61.41 263.353 58.3713 263.353 54.53V12.132H271.265V54.014C271.265 55.906 271.781 57.4253 272.813 58.572C273.902 59.6613 275.393 60.206 277.285 60.206H286.143V67H275.823ZM255.785 29.934V23.14H286.315V29.934H255.785Z" fill="white" fill-opacity="0.25"/>
</svg>
