<svg width="130" height="31" viewBox="0 0 130 31" fill="none" xmlns="http://www.w3.org/2000/svg">
<path d="M0.0400002 30V2H3.88V14.04H18.64V2H22.48V30H18.64V17.44H3.88V30H0.0400002ZM38.7956 30C36.5556 30 34.569 29.5867 32.8356 28.76C31.1023 27.9067 29.7423 26.72 28.7556 25.2C27.7956 23.6533 27.3156 21.8533 27.3156 19.8C27.3156 17.7733 27.729 15.96 28.5556 14.36C29.3823 12.7333 30.529 11.4533 31.9956 10.52C33.4623 9.58667 35.169 9.12 37.1156 9.12C39.2223 9.12 40.969 9.57333 42.3556 10.48C43.769 11.3867 44.8223 12.6133 45.5156 14.16C46.209 15.68 46.5556 17.3867 46.5556 19.28C46.5556 19.5733 46.5423 19.88 46.5156 20.2C46.5156 20.52 46.489 20.8 46.4356 21.04H31.2356C31.369 22.2933 31.7823 23.36 32.4756 24.24C33.169 25.0933 34.049 25.7467 35.1156 26.2C36.209 26.6267 37.409 26.84 38.7156 26.84H44.0356V30H38.7956ZM31.1956 18.44H42.8356C42.8356 17.9333 42.7823 17.4 42.6756 16.84C42.569 16.2533 42.3823 15.6933 42.1156 15.16C41.849 14.6 41.489 14.1067 41.0356 13.68C40.609 13.2267 40.0623 12.8667 39.3956 12.6C38.7556 12.3333 37.9956 12.2 37.1156 12.2C36.1823 12.2 35.3556 12.3867 34.6356 12.76C33.9423 13.1067 33.3423 13.5867 32.8356 14.2C32.329 14.7867 31.9423 15.4533 31.6756 16.2C31.409 16.9467 31.249 17.6933 31.1956 18.44ZM59.7281 30.48C57.7548 30.48 56.0481 30.0133 54.6081 29.08C53.1681 28.12 52.0615 26.8267 51.2881 25.2C50.5148 23.5733 50.1281 21.7733 50.1281 19.8C50.1281 17.8 50.5548 16 51.4081 14.4C52.2615 12.7733 53.4881 11.4933 55.0881 10.56C56.6881 9.6 58.6081 9.12 60.8481 9.12C63.0081 9.12 64.8615 9.58667 66.4081 10.52C67.9548 11.4533 69.1415 12.72 69.9681 14.32C70.8215 15.92 71.2481 17.7067 71.2481 19.68V30H67.5281V25.84H67.4481C67.0481 26.6133 66.5015 27.36 65.8081 28.08C65.1415 28.7733 64.3015 29.3467 63.2881 29.8C62.2748 30.2533 61.0881 30.48 59.7281 30.48ZM60.6881 27.32C62.0215 27.32 63.1948 27 64.2081 26.36C65.2481 25.6933 66.0481 24.7867 66.6081 23.64C67.1948 22.4667 67.4881 21.16 67.4881 19.72C67.4881 18.3067 67.2081 17.04 66.6481 15.92C66.1148 14.8 65.3415 13.92 64.3281 13.28C63.3148 12.6133 62.1281 12.28 60.7681 12.28C59.3281 12.28 58.0881 12.6133 57.0481 13.28C56.0348 13.9467 55.2481 14.8533 54.6881 16C54.1548 17.12 53.8881 18.4 53.8881 19.84C53.8881 21.2267 54.1548 22.4933 54.6881 23.64C55.2215 24.76 55.9948 25.6533 57.0081 26.32C58.0215 26.9867 59.2481 27.32 60.6881 27.32ZM77.1075 30V0.799999H80.7875V30H77.1075ZM86.4788 30V9.28C86.4788 7.86667 86.7854 6.61333 87.3988 5.52C88.0388 4.42666 88.9054 3.57333 89.9988 2.96C91.1188 2.32 92.3721 2 93.7588 2H103.719V5.4H94.1988C93.0254 5.4 92.0788 5.77333 91.3588 6.52C90.6654 7.24 90.3188 8.16 90.3188 9.28V14.96H102.239V18.36H90.3188V30H86.4788ZM108.045 30V9.6H111.765V30H108.045ZM109.925 6.36C109.258 6.36 108.672 6.12 108.165 5.64C107.685 5.13333 107.445 4.54667 107.445 3.88C107.445 3.21333 107.685 2.64 108.165 2.16C108.672 1.65333 109.258 1.4 109.925 1.4C110.592 1.4 111.165 1.65333 111.645 2.16C112.152 2.64 112.405 3.21333 112.405 3.88C112.405 4.54667 112.152 5.13333 111.645 5.64C111.165 6.12 110.592 6.36 109.925 6.36ZM124.536 30C122.723 30 121.296 29.48 120.256 28.44C119.243 27.4 118.736 25.9867 118.736 24.2V4.48H122.416V23.96C122.416 24.84 122.656 25.5467 123.136 26.08C123.643 26.5867 124.336 26.84 125.216 26.84H129.336V30H124.536ZM115.216 12.76V9.6H129.416V12.76H115.216Z" fill="white"/>
</svg>
