<svg width="399" height="856" viewBox="0 0 399 856" fill="none" xmlns="http://www.w3.org/2000/svg">
<g clip-path="url(#clip0_75_18)">
<rect x="5.79004" y="0.724121" width="393" height="852" rx="44" transform="rotate(0.374697 5.79004 0.724121)" fill="url(#paint0_linear_75_18)" fill-opacity="0.5"/>
<rect x="6.78345" y="1.73059" width="391" height="852" rx="48" transform="rotate(0.374697 6.78345 1.73059)" fill="url(#paint1_linear_75_18)"/>
<g filter="url(#filter0_b_75_18)">
<ellipse cx="372.433" cy="668.136" rx="204" ry="207" transform="rotate(0.374697 372.433 668.136)" fill="#3500A4"/>
<path d="M575.929 669.467C575.183 783.518 483.463 875.367 371.083 874.632C258.702 873.897 168.192 780.857 168.938 666.805C169.683 552.754 261.403 460.906 373.784 461.64C486.164 462.375 576.675 555.416 575.929 669.467Z" stroke="#450066" stroke-opacity="0.5"/>
</g>
<ellipse cx="369.605" cy="183.107" rx="324" ry="345" transform="rotate(0.374697 369.605 183.107)" fill="#EC73F7" fill-opacity="0.2"/>
<ellipse cx="229.024" cy="806.701" rx="142.5" ry="139.5" transform="rotate(0.374697 229.024 806.701)" fill="url(#paint2_linear_75_18)" fill-opacity="0.3"/>
<ellipse cx="106.807" cy="74.8863" rx="126.5" ry="123.5" transform="rotate(0.374697 106.807 74.8863)" fill="url(#paint3_linear_75_18)" fill-opacity="0.5"/>
<path d="M53.2263 169.038L53.62 108.839L61.8758 108.893L61.7065 134.779L93.4398 134.986L93.6091 109.101L101.865 109.155L101.471 169.353L93.2154 169.299L93.392 142.296L61.6587 142.088L61.4821 169.092L53.2263 169.038ZM136.319 169.581C131.503 169.55 127.238 168.633 123.523 166.832C119.808 164.973 116.901 162.402 114.801 159.12C112.759 155.782 111.752 151.905 111.781 147.49C111.81 143.133 112.724 139.24 114.523 135.812C116.324 132.326 118.807 129.591 121.973 127.605C125.14 125.619 128.816 124.639 133.001 124.667C137.53 124.696 141.279 125.695 144.247 127.664C147.273 129.633 149.521 132.285 150.99 135.62C152.459 138.898 153.18 142.572 153.153 146.643C153.149 147.274 153.116 147.933 153.055 148.62C153.05 149.308 152.989 149.91 152.871 150.425L120.191 150.211C120.46 152.908 121.334 155.207 122.812 157.109C124.291 158.953 126.174 160.37 128.461 161.36C130.805 162.292 133.382 162.768 136.192 162.786L147.629 162.861L147.585 169.655L136.319 169.581ZM120.142 144.621L145.167 144.785C145.175 143.695 145.067 142.548 144.846 141.342C144.625 140.08 144.231 138.873 143.666 137.723C143.1 136.515 142.333 135.449 141.364 134.526C140.454 133.545 139.283 132.763 137.854 132.181C136.482 131.598 134.849 131.301 132.957 131.288C130.951 131.275 129.171 131.665 127.618 132.458C126.122 133.193 124.825 134.217 123.728 135.528C122.63 136.782 121.789 138.21 121.205 139.812C120.622 141.413 120.267 143.016 120.142 144.621ZM181.086 170.906C176.844 170.878 173.181 169.851 170.098 167.824C167.016 165.74 164.655 162.944 163.015 159.436C161.375 155.928 160.569 152.052 160.597 147.81C160.625 143.51 161.568 139.646 163.425 136.218C165.282 132.733 167.938 129.998 171.391 128.014C174.844 125.972 178.979 124.967 183.795 124.999C188.438 125.029 192.416 126.059 195.729 128.087C199.041 130.115 201.574 132.855 203.329 136.307C205.141 139.759 206.033 143.606 206.006 147.849L205.861 170.036L197.863 169.984L197.921 161.04L197.749 161.039C196.878 162.696 195.693 164.293 194.192 165.832C192.749 167.313 190.935 168.534 188.75 169.494C186.565 170.455 184.01 170.925 181.086 170.906ZM183.195 164.126C186.061 164.144 188.588 163.473 190.776 162.111C193.021 160.693 194.754 158.755 195.974 156.297C197.252 153.783 197.901 150.978 197.921 147.882C197.941 144.843 197.357 142.116 196.169 139.7C195.038 137.285 193.388 135.382 191.218 133.992C189.049 132.544 186.502 131.811 183.578 131.792C180.482 131.771 177.812 132.47 175.566 133.889C173.378 135.308 171.674 137.246 170.454 139.704C169.292 142.104 168.7 144.853 168.68 147.948C168.661 150.93 169.216 153.657 170.347 156.13C171.478 158.545 173.128 160.476 175.297 161.924C177.466 163.372 180.099 164.105 183.195 164.126ZM218.228 170.117L218.638 107.338L226.55 107.39L226.14 170.169L218.228 170.117ZM238.146 170.247L238.437 125.7C238.457 122.662 239.162 119.971 240.554 117.63C241.945 115.288 243.82 113.466 246.18 112.162C248.539 110.802 251.21 110.131 254.191 110.151L275.605 110.291L275.557 117.601L255.089 117.467C252.567 117.45 250.526 118.24 248.968 119.835C247.467 121.373 246.709 123.346 246.693 125.754L246.613 137.966L272.24 138.133L272.193 145.443L246.565 145.276L246.401 170.301L238.146 170.247ZM284.282 170.549L284.569 126.69L292.567 126.742L292.28 170.601L284.282 170.549ZM288.656 119.75C287.223 119.741 285.965 119.217 284.883 118.178C283.858 117.082 283.35 115.817 283.359 114.384C283.369 112.95 283.893 111.721 284.932 110.696C286.028 109.614 287.293 109.077 288.726 109.087C290.159 109.096 291.389 109.649 292.413 110.745C293.496 111.784 294.033 113.02 294.023 114.453C294.014 115.887 293.461 117.144 292.364 118.227C291.326 119.252 290.09 119.76 288.656 119.75ZM319.508 170.779C315.609 170.754 312.549 169.616 310.328 167.365C308.164 165.115 307.094 162.069 307.119 158.228L307.397 115.831L315.308 115.883L315.035 157.764C315.022 159.656 315.528 161.178 316.553 162.332C317.635 163.428 319.122 163.983 321.014 163.995L329.872 164.053L329.827 170.847L319.508 170.779ZM299.712 133.583L299.757 126.789L330.286 126.989L330.242 133.783L299.712 133.583Z" fill="white"/>
<path d="M58.2065 172.071L58.6002 111.872L66.856 111.926L66.6868 137.811L98.4201 138.019L98.5894 112.133L106.845 112.187L106.451 172.386L98.1957 172.332L98.3723 145.329L66.6389 145.121L66.4623 172.125L58.2065 172.071ZM141.299 172.614C136.483 172.582 132.218 171.666 128.503 169.864C124.788 168.005 121.881 165.435 119.781 162.153C117.739 158.814 116.732 154.938 116.761 150.523C116.79 146.166 117.704 142.273 119.504 138.845C121.304 135.359 123.787 132.623 126.954 130.637C130.12 128.651 133.796 127.672 137.981 127.699C142.51 127.729 146.259 128.728 149.228 130.697C152.253 132.666 154.501 135.318 155.97 138.653C157.439 141.931 158.16 145.605 158.134 149.676C158.13 150.306 158.097 150.965 158.035 151.653C158.03 152.341 157.969 152.943 157.851 153.458L125.172 153.244C125.441 155.941 126.314 158.24 127.793 160.141C129.271 161.986 131.154 163.403 133.441 164.392C135.786 165.325 138.363 165.801 141.172 165.819L152.61 165.894L152.565 172.688L141.299 172.614ZM125.122 147.654L150.148 147.817C150.155 146.728 150.048 145.581 149.826 144.375C149.605 143.112 149.212 141.906 148.646 140.755C148.08 139.548 147.313 138.482 146.345 137.558C145.434 136.578 144.264 135.796 142.834 135.213C141.462 134.631 139.83 134.334 137.938 134.321C135.931 134.308 134.151 134.698 132.598 135.49C131.102 136.226 129.806 137.249 128.708 138.561C127.61 139.815 126.77 141.243 126.186 142.845C125.602 144.446 125.247 146.049 125.122 147.654ZM186.067 173.939C181.824 173.911 178.161 172.884 175.078 170.857C171.996 168.773 169.635 165.976 167.995 162.468C166.355 158.96 165.549 155.085 165.577 150.842C165.605 146.542 166.548 142.678 168.405 139.251C170.262 135.765 172.918 133.031 176.371 131.046C179.824 129.005 183.959 128 188.775 128.032C193.419 128.062 197.397 129.091 200.709 131.12C204.021 133.148 206.554 135.888 208.309 139.339C210.121 142.791 211.014 146.639 210.986 150.881L210.841 173.069L202.843 173.016L202.901 164.073L202.729 164.072C201.859 165.729 200.673 167.326 199.172 168.864C197.729 170.346 195.915 171.566 193.73 172.527C191.545 173.487 188.99 173.958 186.067 173.939ZM188.175 167.158C191.042 167.177 193.569 166.506 195.756 165.144C198.002 163.725 199.734 161.787 200.954 159.33C202.232 156.815 202.881 154.01 202.901 150.914C202.921 147.876 202.337 145.149 201.149 142.733C200.018 140.317 198.368 138.414 196.198 137.024C194.029 135.577 191.482 134.843 188.558 134.824C185.462 134.804 182.792 135.503 180.546 136.922C178.358 138.341 176.654 140.279 175.434 142.737C174.272 145.137 173.681 147.885 173.66 150.981C173.641 153.962 174.196 156.689 175.327 159.162C176.458 161.578 178.108 163.509 180.277 164.957C182.446 166.404 185.079 167.138 188.175 167.158ZM223.208 173.15L223.619 110.371L231.531 110.423L231.12 173.201L223.208 173.15ZM243.126 173.28L243.417 128.733C243.437 125.694 244.143 123.004 245.534 120.663C246.925 118.321 248.801 116.498 251.16 115.195C253.52 113.835 256.19 113.164 259.171 113.184L280.585 113.324L280.537 120.633L260.069 120.5C257.547 120.483 255.506 121.272 253.948 122.868C252.447 124.406 251.689 126.379 251.673 128.787L251.593 140.999L277.221 141.166L277.173 148.476L251.545 148.308L251.382 173.334L243.126 173.28ZM289.262 173.582L289.549 129.723L297.547 129.775L297.26 173.634L289.262 173.582ZM293.637 122.783C292.203 122.774 290.945 122.25 289.863 121.21C288.838 120.114 288.33 118.85 288.34 117.416C288.349 115.983 288.873 114.754 289.912 113.729C291.008 112.646 292.273 112.11 293.706 112.119C295.14 112.129 296.369 112.681 297.394 113.778C298.476 114.817 299.013 116.053 299.003 117.486C298.994 118.919 298.441 120.177 297.345 121.259C296.306 122.285 295.07 122.793 293.637 122.783ZM324.488 173.812C320.589 173.787 317.529 172.648 315.308 170.398C313.144 168.148 312.074 165.102 312.1 161.261L312.377 118.864L320.289 118.915L320.015 160.796C320.002 162.688 320.508 164.211 321.533 165.364C322.615 166.461 324.102 167.015 325.994 167.028L334.852 167.086L334.808 173.879L324.488 173.812ZM304.693 136.616L304.737 129.822L335.266 130.022L335.222 136.815L304.693 136.616Z" fill="white" fill-opacity="0.25"/>
<ellipse cx="30.0847" cy="567.395" rx="153" ry="151.5" transform="rotate(0.374697 30.0847 567.395)" fill="url(#paint4_linear_75_18)" fill-opacity="0.2"/>
<ellipse cx="42.0051" cy="808.978" rx="28.5" ry="29" transform="rotate(0.374697 42.0051 808.978)" fill="url(#paint5_linear_75_18)" fill-opacity="0.2"/>
</g>
<defs>
<filter id="filter0_b_75_18" x="136.433" y="429.136" width="472" height="478" filterUnits="userSpaceOnUse" color-interpolation-filters="sRGB">
<feFlood flood-opacity="0" result="BackgroundImageFix"/>
<feGaussianBlur in="BackgroundImageFix" stdDeviation="16"/>
<feComposite in2="SourceAlpha" operator="in" result="effect1_backgroundBlur_75_18"/>
<feBlend mode="normal" in="SourceGraphic" in2="effect1_backgroundBlur_75_18" result="shape"/>
</filter>
<linearGradient id="paint0_linear_75_18" x1="202.29" y1="0.724121" x2="202.29" y2="852.724" gradientUnits="userSpaceOnUse">
<stop offset="1" stop-color="#072266"/>
</linearGradient>
<linearGradient id="paint1_linear_75_18" x1="202.283" y1="1.73059" x2="202.283" y2="853.731" gradientUnits="userSpaceOnUse">
<stop stop-color="#0E0035"/>
<stop offset="0.369" stop-color="#030099"/>
<stop offset="1" stop-color="#4A0084"/>
</linearGradient>
<linearGradient id="paint2_linear_75_18" x1="229.024" y1="667.201" x2="229.024" y2="946.201" gradientUnits="userSpaceOnUse">
<stop stop-color="#06084D"/>
<stop offset="1" stop-color="#0D14B3"/>
</linearGradient>
<linearGradient id="paint3_linear_75_18" x1="106.807" y1="-48.6137" x2="106.807" y2="198.386" gradientUnits="userSpaceOnUse">
<stop stop-color="#06084D"/>
<stop offset="0.52" stop-color="#99048A"/>
<stop offset="1" stop-color="#7C00DE"/>
</linearGradient>
<linearGradient id="paint4_linear_75_18" x1="30.0847" y1="415.895" x2="30.0847" y2="718.895" gradientUnits="userSpaceOnUse">
<stop stop-color="#06084D"/>
<stop offset="0.52" stop-color="#99048A"/>
<stop offset="1" stop-color="#7C00DE"/>
</linearGradient>
<linearGradient id="paint5_linear_75_18" x1="42.0051" y1="779.978" x2="42.0051" y2="837.978" gradientUnits="userSpaceOnUse">
<stop offset="0.065" stop-color="#2027CD"/>
<stop offset="0.7" stop-color="#99048A"/>
<stop offset="1" stop-color="#7C00DE"/>
</linearGradient>
<clipPath id="clip0_75_18">
<rect x="5.79004" y="0.724121" width="393" height="852" rx="44" transform="rotate(0.374697 5.79004 0.724121)" fill="white"/>
</clipPath>
</defs>
</svg>
