<svg width="293" height="69" viewBox="0 0 293 69" fill="none" xmlns="http://www.w3.org/2000/svg">
<path d="M6.536 63V2.8H14.792V28.686H46.526V2.8H54.782V63H46.526V35.996H14.792V63H6.536ZM89.6306 63C84.8146 63 80.5433 62.1113 76.8166 60.334C73.0899 58.4993 70.1659 55.948 68.0446 52.68C65.9806 49.3547 64.9486 45.4847 64.9486 41.07C64.9486 36.7127 65.8373 32.814 67.6146 29.374C69.3919 25.8767 71.8573 23.1247 75.0106 21.118C78.1639 19.1113 81.8333 18.108 86.0186 18.108C90.5479 18.108 94.3033 19.0827 97.2846 21.032C100.323 22.9813 102.588 25.6187 104.079 28.944C105.569 32.212 106.315 35.8813 106.315 39.952C106.315 40.5827 106.286 41.242 106.229 41.93C106.229 42.618 106.171 43.22 106.057 43.736H73.3766C73.6633 46.4307 74.5519 48.724 76.0426 50.616C77.5333 52.4507 79.4253 53.8553 81.7186 54.83C84.0693 55.7473 86.6493 56.206 89.4586 56.206H100.897V63H89.6306ZM73.2906 38.146H98.3166C98.3166 37.0567 98.2019 35.91 97.9726 34.706C97.7433 33.4447 97.3419 32.2407 96.7686 31.094C96.1953 29.89 95.4213 28.8293 94.4466 27.912C93.5293 26.9373 92.3539 26.1633 90.9206 25.59C89.5446 25.0167 87.9106 24.73 86.0186 24.73C84.0119 24.73 82.2346 25.1313 80.6866 25.934C79.1959 26.6793 77.9059 27.7113 76.8166 29.03C75.7273 30.2913 74.8959 31.7247 74.3226 33.33C73.7493 34.9353 73.4053 36.5407 73.2906 38.146ZM134.405 64.032C130.163 64.032 126.493 63.0287 123.397 61.022C120.301 58.958 117.922 56.1773 116.259 52.68C114.597 49.1827 113.765 45.3127 113.765 41.07C113.765 36.77 114.683 32.9 116.517 29.46C118.352 25.9627 120.989 23.2107 124.429 21.204C127.869 19.14 131.997 18.108 136.813 18.108C141.457 18.108 145.442 19.1113 148.767 21.118C152.093 23.1247 154.644 25.848 156.421 29.288C158.256 32.728 159.173 36.5693 159.173 40.812V63H151.175V54.056H151.003C150.143 55.7187 148.968 57.324 147.477 58.872C146.044 60.3627 144.238 61.5953 142.059 62.57C139.881 63.5447 137.329 64.032 134.405 64.032ZM136.469 57.238C139.336 57.238 141.859 56.55 144.037 55.174C146.273 53.7407 147.993 51.7913 149.197 49.326C150.459 46.8033 151.089 43.994 151.089 40.898C151.089 37.8593 150.487 35.136 149.283 32.728C148.137 30.32 146.474 28.428 144.295 27.052C142.117 25.6187 139.565 24.902 136.641 24.902C133.545 24.902 130.879 25.6187 128.643 27.052C126.465 28.4853 124.773 30.4347 123.569 32.9C122.423 35.308 121.849 38.06 121.849 41.156C121.849 44.1373 122.423 46.8607 123.569 49.326C124.716 51.734 126.379 53.6547 128.557 55.088C130.736 56.5213 133.373 57.238 136.469 57.238ZM171.541 63V0.219998H179.453V63H171.541ZM191.459 63V18.452C191.459 15.4133 192.147 12.7187 193.523 10.368C194.899 8.01733 196.763 6.18266 199.113 4.86399C201.464 3.488 204.13 2.8 207.111 2.8H228.525V10.11H208.057C205.535 10.11 203.499 10.9127 201.951 12.518C200.461 14.066 199.715 16.044 199.715 18.452V30.664H225.343V37.974H199.715V63H191.459ZM237.597 63V19.14H245.595V63H237.597ZM241.639 12.174C240.205 12.174 238.944 11.658 237.855 10.626C236.823 9.53666 236.307 8.27533 236.307 6.842C236.307 5.40866 236.823 4.176 237.855 3.144C238.944 2.05466 240.205 1.51 241.639 1.51C243.072 1.51 244.305 2.05466 245.337 3.144C246.426 4.176 246.971 5.40866 246.971 6.842C246.971 8.27533 246.426 9.53666 245.337 10.626C244.305 11.658 243.072 12.174 241.639 12.174ZM272.823 63C268.924 63 265.857 61.882 263.621 59.646C261.442 57.41 260.353 54.3713 260.353 50.53V8.132H268.265V50.014C268.265 51.906 268.781 53.4253 269.813 54.572C270.902 55.6613 272.393 56.206 274.285 56.206H283.143V63H272.823ZM252.785 25.934V19.14H283.315V25.934H252.785Z" fill="white"/>
<path d="M12.536 67V6.8H20.792V32.686H52.526V6.8H60.782V67H52.526V39.996H20.792V67H12.536ZM95.6306 67C90.8146 67 86.5433 66.1113 82.8166 64.334C79.0899 62.4993 76.1659 59.948 74.0446 56.68C71.9806 53.3547 70.9486 49.4847 70.9486 45.07C70.9486 40.7127 71.8373 36.814 73.6146 33.374C75.3919 29.8767 77.8573 27.1247 81.0106 25.118C84.1639 23.1113 87.8333 22.108 92.0186 22.108C96.5479 22.108 100.303 23.0827 103.285 25.032C106.323 26.9813 108.588 29.6187 110.079 32.944C111.569 36.212 112.315 39.8813 112.315 43.952C112.315 44.5827 112.286 45.242 112.229 45.93C112.229 46.618 112.171 47.22 112.057 47.736H79.3766C79.6633 50.4307 80.5519 52.724 82.0426 54.616C83.5333 56.4507 85.4253 57.8553 87.7186 58.83C90.0693 59.7473 92.6493 60.206 95.4586 60.206H106.897V67H95.6306ZM79.2906 42.146H104.317C104.317 41.0567 104.202 39.91 103.973 38.706C103.743 37.4447 103.342 36.2407 102.769 35.094C102.195 33.89 101.421 32.8293 100.447 31.912C99.5293 30.9373 98.3539 30.1633 96.9206 29.59C95.5446 29.0167 93.9106 28.73 92.0186 28.73C90.0119 28.73 88.2346 29.1313 86.6866 29.934C85.1959 30.6793 83.9059 31.7113 82.8166 33.03C81.7273 34.2913 80.8959 35.7247 80.3226 37.33C79.7493 38.9353 79.4053 40.5407 79.2906 42.146ZM140.405 68.032C136.163 68.032 132.493 67.0287 129.397 65.022C126.301 62.958 123.922 60.1773 122.259 56.68C120.597 53.1827 119.765 49.3127 119.765 45.07C119.765 40.77 120.683 36.9 122.517 33.46C124.352 29.9627 126.989 27.2107 130.429 25.204C133.869 23.14 137.997 22.108 142.813 22.108C147.457 22.108 151.442 23.1113 154.767 25.118C158.093 27.1247 160.644 29.848 162.421 33.288C164.256 36.728 165.173 40.5693 165.173 44.812V67H157.175V58.056H157.003C156.143 59.7187 154.968 61.324 153.477 62.872C152.044 64.3627 150.238 65.5953 148.059 66.57C145.881 67.5447 143.329 68.032 140.405 68.032ZM142.469 61.238C145.336 61.238 147.859 60.55 150.037 59.174C152.273 57.7407 153.993 55.7913 155.197 53.326C156.459 50.8033 157.089 47.994 157.089 44.898C157.089 41.8593 156.487 39.136 155.283 36.728C154.137 34.32 152.474 32.428 150.295 31.052C148.117 29.6187 145.565 28.902 142.641 28.902C139.545 28.902 136.879 29.6187 134.643 31.052C132.465 32.4853 130.773 34.4347 129.569 36.9C128.423 39.308 127.849 42.06 127.849 45.156C127.849 48.1373 128.423 50.8607 129.569 53.326C130.716 55.734 132.379 57.6547 134.557 59.088C136.736 60.5213 139.373 61.238 142.469 61.238ZM177.541 67V4.22H185.453V67H177.541ZM197.459 67V22.452C197.459 19.4133 198.147 16.7187 199.523 14.368C200.899 12.0173 202.763 10.1827 205.113 8.86399C207.464 7.488 210.13 6.8 213.111 6.8H234.525V14.11H214.057C211.535 14.11 209.499 14.9127 207.951 16.518C206.461 18.066 205.715 20.044 205.715 22.452V34.664H231.343V41.974H205.715V67H197.459ZM243.597 67V23.14H251.595V67H243.597ZM247.639 16.174C246.205 16.174 244.944 15.658 243.855 14.626C242.823 13.5367 242.307 12.2753 242.307 10.842C242.307 9.40866 242.823 8.176 243.855 7.144C244.944 6.05466 246.205 5.51 247.639 5.51C249.072 5.51 250.305 6.05466 251.337 7.144C252.426 8.176 252.971 9.40866 252.971 10.842C252.971 12.2753 252.426 13.5367 251.337 14.626C250.305 15.658 249.072 16.174 247.639 16.174ZM278.823 67C274.924 67 271.857 65.882 269.621 63.646C267.442 61.41 266.353 58.3713 266.353 54.53V12.132H274.265V54.014C274.265 55.906 274.781 57.4253 275.813 58.572C276.902 59.6613 278.393 60.206 280.285 60.206H289.143V67H278.823ZM258.785 29.934V23.14H289.315V29.934H258.785Z" fill="white" fill-opacity="0.25"/>
</svg>
