<svg width="362" height="150" viewBox="0 0 362 150" fill="none" xmlns="http://www.w3.org/2000/svg">
<g filter="url(#filter0_b_172_49)">
<path d="M302.577 4.1585L283.551 17.2152L272.363 29.202L268.126 37.8682L263.889 46.5345L240.921 93.5128L269.303 73.3439L276.512 68.2212L288.078 60.0014L296.976 53.6785L308.445 33.2167L318.889 4.32093L318.219 1L302.577 4.1585Z" fill="url(#paint0_linear_172_49)"/>
<path d="M318.219 1L302.577 4.1585M318.219 1L318.889 4.32093L308.445 33.2167M318.219 1L292.282 30.4319M240.921 93.5128L263.889 46.5345M240.921 93.5128L255.867 75.1559M240.921 93.5128L269.303 73.3439M283.551 17.2152L302.577 4.1585M283.551 17.2152L282.178 42.8413M283.551 17.2152L272.363 29.202M302.577 4.1585L292.282 30.4319M296.976 53.6785L308.445 33.2167M296.976 53.6785L282.178 42.8413M296.976 53.6785L288.078 60.0014M308.445 33.2167L292.282 30.4319M292.282 30.4319L282.178 42.8413M282.178 42.8413L273.531 53.4614M273.531 53.4614L288.078 60.0014M273.531 53.4614L272.363 29.202M273.531 53.4614L266.926 61.5738M288.078 60.0014L276.512 68.2212M272.363 29.202L268.126 37.8682M263.889 46.5345L255.867 75.1559M263.889 46.5345L268.126 37.8682M255.867 75.1559L266.926 61.5738M269.303 73.3439L256.042 76.0217L266.926 61.5738M269.303 73.3439L276.512 68.2212M266.926 61.5738L268.126 37.8682M266.926 61.5738L276.512 68.2212" stroke="black"/>
</g>
<path d="M6.536 144.513V84.3128H14.792V110.199H46.526V84.3128H54.782V144.513H46.526V117.509H14.792V144.513H6.536ZM89.6306 144.513C84.8146 144.513 80.5433 143.624 76.8166 141.847C73.0899 140.012 70.1659 137.461 68.0446 134.193C65.9806 130.867 64.9486 126.997 64.9486 122.583C64.9486 118.225 65.8373 114.327 67.6146 110.887C69.3919 107.389 71.8573 104.637 75.0106 102.631C78.1639 100.624 81.8333 99.6208 86.0186 99.6208C90.5479 99.6208 94.3033 100.595 97.2846 102.545C100.323 104.494 102.588 107.131 104.079 110.457C105.569 113.725 106.315 117.394 106.315 121.465C106.315 122.095 106.286 122.755 106.229 123.443C106.229 124.131 106.171 124.733 106.057 125.249H73.3766C73.6633 127.943 74.5519 130.237 76.0426 132.129C77.5333 133.963 79.4253 135.368 81.7186 136.343C84.0693 137.26 86.6493 137.719 89.4586 137.719H100.897V144.513H89.6306ZM73.2906 119.659H98.3166C98.3166 118.569 98.2019 117.423 97.9726 116.219C97.7433 114.957 97.3419 113.753 96.7686 112.607C96.1953 111.403 95.4213 110.342 94.4466 109.425C93.5293 108.45 92.3539 107.676 90.9206 107.103C89.5446 106.529 87.9106 106.243 86.0186 106.243C84.0119 106.243 82.2346 106.644 80.6866 107.447C79.1959 108.192 77.9059 109.224 76.8166 110.543C75.7273 111.804 74.8959 113.237 74.3226 114.843C73.7493 116.448 73.4053 118.053 73.2906 119.659ZM134.405 145.545C130.163 145.545 126.493 144.541 123.397 142.535C120.301 140.471 117.922 137.69 116.259 134.193C114.597 130.695 113.765 126.825 113.765 122.583C113.765 118.283 114.683 114.413 116.517 110.973C118.352 107.475 120.989 104.723 124.429 102.717C127.869 100.653 131.997 99.6208 136.813 99.6208C141.457 99.6208 145.442 100.624 148.767 102.631C152.093 104.637 154.644 107.361 156.421 110.801C158.256 114.241 159.173 118.082 159.173 122.325V144.513H151.175V135.569H151.003C150.143 137.231 148.968 138.837 147.477 140.385C146.044 141.875 144.238 143.108 142.059 144.083C139.881 145.057 137.329 145.545 134.405 145.545ZM136.469 138.751C139.336 138.751 141.859 138.063 144.037 136.687C146.273 135.253 147.993 133.304 149.197 130.839C150.459 128.316 151.089 125.507 151.089 122.411C151.089 119.372 150.487 116.649 149.283 114.241C148.137 111.833 146.474 109.941 144.295 108.565C142.117 107.131 139.565 106.415 136.641 106.415C133.545 106.415 130.879 107.131 128.643 108.565C126.465 109.998 124.773 111.947 123.569 114.413C122.423 116.821 121.849 119.573 121.849 122.669C121.849 125.65 122.423 128.373 123.569 130.839C124.716 133.247 126.379 135.167 128.557 136.601C130.736 138.034 133.373 138.751 136.469 138.751ZM171.541 144.513V81.7328H179.453V144.513H171.541ZM191.459 144.513V99.9648C191.459 96.9261 192.119 94.2314 193.437 91.8808C194.813 89.5301 196.677 87.6954 199.027 86.3768C201.435 85.0008 204.13 84.3128 207.111 84.3128H228.525V91.6228H208.057C205.535 91.6228 203.499 92.4254 201.951 94.0308C200.461 95.5788 199.715 97.5568 199.715 99.9648V112.177H225.343V119.487H199.715V144.513H191.459ZM237.597 144.513V100.653H245.595V144.513H237.597ZM241.639 93.6868C240.205 93.6868 238.944 93.1708 237.855 92.1388C236.823 91.0494 236.307 89.7881 236.307 88.3548C236.307 86.9214 236.823 85.6888 237.855 84.6568C238.944 83.5674 240.205 83.0228 241.639 83.0228C243.072 83.0228 244.305 83.5674 245.337 84.6568C246.426 85.6888 246.971 86.9214 246.971 88.3548C246.971 89.7881 246.426 91.0494 245.337 92.1388C244.305 93.1708 243.072 93.6868 241.639 93.6868ZM272.823 144.513C268.924 144.513 265.857 143.395 263.621 141.159C261.442 138.923 260.353 135.884 260.353 132.043V89.6448H268.265V131.527C268.265 133.419 268.781 134.938 269.813 136.085C270.902 137.174 272.393 137.719 274.285 137.719H283.143V144.513H272.823ZM252.785 107.447V100.653H283.315V107.447H252.785Z" fill="url(#paint1_linear_172_49)"/>
<path d="M10.2809 148.713V88.5128H18.5369V114.399H50.2709V88.5128H58.5269V148.713H50.2709V121.709H18.5369V148.713H10.2809ZM93.3755 148.713C88.5595 148.713 84.2881 147.824 80.5615 146.047C76.8348 144.212 73.9108 141.661 71.7895 138.393C69.7255 135.067 68.6935 131.197 68.6935 126.783C68.6935 122.425 69.5821 118.527 71.3595 115.087C73.1368 111.589 75.6021 108.837 78.7555 106.831C81.9088 104.824 85.5781 103.821 89.7635 103.821C94.2928 103.821 98.0481 104.795 101.029 106.745C104.068 108.694 106.333 111.331 107.823 114.657C109.314 117.925 110.059 121.594 110.059 125.665C110.059 126.295 110.031 126.955 109.973 127.643C109.973 128.331 109.916 128.933 109.801 129.449H77.1215C77.4081 132.143 78.2968 134.437 79.7875 136.329C81.2781 138.163 83.1701 139.568 85.4635 140.543C87.8141 141.46 90.3941 141.919 93.2035 141.919H104.641V148.713H93.3755ZM77.0355 123.859H102.061C102.061 122.769 101.947 121.623 101.717 120.419C101.488 119.157 101.087 117.953 100.513 116.807C99.9401 115.603 99.1661 114.542 98.1915 113.625C97.2741 112.65 96.0988 111.876 94.6655 111.303C93.2895 110.729 91.6555 110.443 89.7635 110.443C87.7568 110.443 85.9795 110.844 84.4315 111.647C82.9408 112.392 81.6508 113.424 80.5615 114.743C79.4721 116.004 78.6408 117.437 78.0675 119.043C77.4941 120.648 77.1501 122.253 77.0355 123.859ZM138.15 149.745C133.908 149.745 130.238 148.741 127.142 146.735C124.046 144.671 121.667 141.89 120.004 138.393C118.342 134.895 117.51 131.025 117.51 126.783C117.51 122.483 118.428 118.613 120.262 115.173C122.097 111.675 124.734 108.923 128.174 106.917C131.614 104.853 135.742 103.821 140.558 103.821C145.202 103.821 149.187 104.824 152.512 106.831C155.838 108.837 158.389 111.561 160.166 115.001C162.001 118.441 162.918 122.282 162.918 126.525V148.713H154.92V139.769H154.748C153.888 141.431 152.713 143.037 151.222 144.585C149.789 146.075 147.983 147.308 145.804 148.283C143.626 149.257 141.074 149.745 138.15 149.745ZM140.214 142.951C143.081 142.951 145.604 142.263 147.782 140.887C150.018 139.453 151.738 137.504 152.942 135.039C154.204 132.516 154.834 129.707 154.834 126.611C154.834 123.572 154.232 120.849 153.028 118.441C151.882 116.033 150.219 114.141 148.04 112.765C145.862 111.331 143.31 110.615 140.386 110.615C137.29 110.615 134.624 111.331 132.388 112.765C130.21 114.198 128.518 116.147 127.314 118.613C126.168 121.021 125.594 123.773 125.594 126.869C125.594 129.85 126.168 132.573 127.314 135.039C128.461 137.447 130.124 139.367 132.302 140.801C134.481 142.234 137.118 142.951 140.214 142.951ZM175.286 148.713V85.9328H183.198V148.713H175.286ZM195.204 148.713V104.165C195.204 101.126 195.864 98.4314 197.182 96.0808C198.558 93.7301 200.422 91.8954 202.772 90.5768C205.18 89.2008 207.875 88.5128 210.856 88.5128H232.27V95.8228H211.802C209.28 95.8228 207.244 96.6254 205.696 98.2308C204.206 99.7788 203.46 101.757 203.46 104.165V116.377H229.088V123.687H203.46V148.713H195.204ZM241.342 148.713V104.853H249.34V148.713H241.342ZM245.384 97.8868C243.95 97.8868 242.689 97.3708 241.6 96.3388C240.568 95.2494 240.052 93.9881 240.052 92.5548C240.052 91.1214 240.568 89.8888 241.6 88.8568C242.689 87.7674 243.95 87.2228 245.384 87.2228C246.817 87.2228 248.05 87.7674 249.082 88.8568C250.171 89.8888 250.716 91.1214 250.716 92.5548C250.716 93.9881 250.171 95.2494 249.082 96.3388C248.05 97.3708 246.817 97.8868 245.384 97.8868ZM276.568 148.713C272.669 148.713 269.602 147.595 267.366 145.359C265.187 143.123 264.098 140.084 264.098 136.243V93.8448H272.01V135.727C272.01 137.619 272.526 139.138 273.558 140.285C274.647 141.374 276.138 141.919 278.03 141.919H286.888V148.713H276.568ZM256.53 111.647V104.853H287.06V111.647H256.53Z" fill="#BD00FF" fill-opacity="0.24"/>
<defs>
<filter id="filter0_b_172_49" x="236.472" y="-3.58905" width="86.9351" height="101.509" filterUnits="userSpaceOnUse" color-interpolation-filters="sRGB">
<feFlood flood-opacity="0" result="BackgroundImageFix"/>
<feGaussianBlur in="BackgroundImageFix" stdDeviation="2"/>
<feComposite in2="SourceAlpha" operator="in" result="effect1_backgroundBlur_172_49"/>
<feBlend mode="normal" in="SourceGraphic" in2="effect1_backgroundBlur_172_49" result="shape"/>
</filter>
<linearGradient id="paint0_linear_172_49" x1="325.679" y1="37.9454" x2="233.461" y2="56.5674" gradientUnits="userSpaceOnUse">
<stop stop-color="#FF0AAC"/>
<stop offset="0.465" stop-color="#7600AE"/>
<stop offset="1" stop-color="#18004B"/>
</linearGradient>
<linearGradient id="paint1_linear_172_49" x1="179.128" y1="104.513" x2="179.128" y2="142.313" gradientUnits="userSpaceOnUse">
<stop stop-color="#5100FE"/>
<stop offset="0.5" stop-color="#8003D8"/>
<stop offset="1" stop-color="#AE05B1"/>
</linearGradient>
</defs>
</svg>
