<svg width="342" height="72" viewBox="0 0 342 72" fill="none" xmlns="http://www.w3.org/2000/svg">
<path d="M6.536 62.9929V2.79292H14.792V28.6789H46.526V2.79292H54.782V62.9929H46.526V35.9889H14.792V62.9929H6.536ZM89.6306 62.9929C84.8146 62.9929 80.5433 62.1043 76.8166 60.3269C73.0899 58.4923 70.1659 55.9409 68.0446 52.6729C65.9806 49.3476 64.9486 45.4776 64.9486 41.0629C64.9486 36.7056 65.8373 32.8069 67.6146 29.3669C69.3919 25.8696 71.8573 23.1176 75.0106 21.1109C78.1639 19.1043 81.8333 18.1009 86.0186 18.1009C90.5479 18.1009 94.3033 19.0756 97.2846 21.0249C100.323 22.9743 102.588 25.6116 104.079 28.9369C105.569 32.2049 106.315 35.8743 106.315 39.9449C106.315 40.5756 106.286 41.2349 106.229 41.9229C106.229 42.6109 106.171 43.2129 106.057 43.7289H73.3766C73.6633 46.4236 74.5519 48.7169 76.0426 50.6089C77.5333 52.4436 79.4253 53.8483 81.7186 54.8229C84.0693 55.7403 86.6493 56.1989 89.4586 56.1989H100.897V62.9929H89.6306ZM73.2906 38.1389H98.3166C98.3166 37.0496 98.2019 35.9029 97.9726 34.6989C97.7433 33.4376 97.3419 32.2336 96.7686 31.0869C96.1953 29.8829 95.4213 28.8223 94.4466 27.9049C93.5293 26.9303 92.3539 26.1563 90.9206 25.5829C89.5446 25.0096 87.9106 24.7229 86.0186 24.7229C84.0119 24.7229 82.2346 25.1243 80.6866 25.9269C79.1959 26.6723 77.9059 27.7043 76.8166 29.0229C75.7273 30.2843 74.8959 31.7176 74.3226 33.3229C73.7493 34.9283 73.4053 36.5336 73.2906 38.1389ZM134.405 64.0249C130.163 64.0249 126.493 63.0216 123.397 61.0149C120.301 58.9509 117.922 56.1703 116.259 52.6729C114.597 49.1756 113.765 45.3056 113.765 41.0629C113.765 36.7629 114.683 32.8929 116.517 29.4529C118.352 25.9556 120.989 23.2036 124.429 21.1969C127.869 19.1329 131.997 18.1009 136.813 18.1009C141.457 18.1009 145.442 19.1043 148.767 21.1109C152.093 23.1176 154.644 25.8409 156.421 29.2809C158.256 32.7209 159.173 36.5623 159.173 40.8049V62.9929H151.175V54.0489H151.003C150.143 55.7116 148.968 57.3169 147.477 58.8649C146.044 60.3556 144.238 61.5883 142.059 62.5629C139.881 63.5376 137.329 64.0249 134.405 64.0249ZM136.469 57.2309C139.336 57.2309 141.859 56.5429 144.037 55.1669C146.273 53.7336 147.993 51.7843 149.197 49.3189C150.459 46.7963 151.089 43.9869 151.089 40.8909C151.089 37.8523 150.487 35.1289 149.283 32.7209C148.137 30.3129 146.474 28.4209 144.295 27.0449C142.117 25.6116 139.565 24.8949 136.641 24.8949C133.545 24.8949 130.879 25.6116 128.643 27.0449C126.465 28.4783 124.773 30.4276 123.569 32.8929C122.423 35.3009 121.849 38.0529 121.849 41.1489C121.849 44.1303 122.423 46.8536 123.569 49.3189C124.716 51.7269 126.379 53.6476 128.557 55.0809C130.736 56.5143 133.373 57.2309 136.469 57.2309ZM171.541 62.9929V0.212918H179.453V62.9929H171.541ZM191.459 62.9929V18.4449C191.459 15.4063 192.147 12.7116 193.523 10.3609C194.899 8.01025 196.763 6.17558 199.113 4.85691C201.464 3.48092 204.13 2.79292 207.111 2.79292H228.525V10.1029H208.057C205.535 10.1029 203.499 10.9056 201.951 12.5109C200.461 14.0589 199.715 16.0369 199.715 18.4449V30.6569H225.343V37.9669H199.715V62.9929H191.459ZM237.597 62.9929V19.1329H245.595V62.9929H237.597ZM241.639 12.1669C240.205 12.1669 238.944 11.6509 237.855 10.6189C236.823 9.52958 236.307 8.26825 236.307 6.83492C236.307 5.40158 236.823 4.16892 237.855 3.13692C238.944 2.04758 240.205 1.50292 241.639 1.50292C243.072 1.50292 244.305 2.04758 245.337 3.13692C246.426 4.16892 246.971 5.40158 246.971 6.83492C246.971 8.26825 246.426 9.52958 245.337 10.6189C244.305 11.6509 243.072 12.1669 241.639 12.1669ZM272.823 62.9929C268.924 62.9929 265.857 61.8749 263.621 59.6389C261.442 57.4029 260.353 54.3643 260.353 50.5229V8.12492H268.265V50.0069C268.265 51.8989 268.781 53.4183 269.813 54.5649C270.902 55.6543 272.393 56.1989 274.285 56.1989H283.143V62.9929H272.823ZM252.785 25.9269V19.1329H283.315V25.9269H252.785Z" fill="white"/>
<path d="M12.536 69.9929V9.79292H20.792V35.6789H52.526V9.79292H60.782V69.9929H52.526V42.9889H20.792V69.9929H12.536ZM95.6306 69.9929C90.8146 69.9929 86.5433 69.1043 82.8166 67.3269C79.0899 65.4923 76.1659 62.9409 74.0446 59.6729C71.9806 56.3476 70.9486 52.4776 70.9486 48.0629C70.9486 43.7056 71.8373 39.8069 73.6146 36.3669C75.3919 32.8696 77.8573 30.1176 81.0106 28.1109C84.1639 26.1043 87.8333 25.1009 92.0186 25.1009C96.5479 25.1009 100.303 26.0756 103.285 28.0249C106.323 29.9743 108.588 32.6116 110.079 35.9369C111.569 39.2049 112.315 42.8743 112.315 46.9449C112.315 47.5756 112.286 48.2349 112.229 48.9229C112.229 49.6109 112.171 50.2129 112.057 50.7289H79.3766C79.6633 53.4236 80.5519 55.7169 82.0426 57.6089C83.5333 59.4436 85.4253 60.8483 87.7186 61.8229C90.0693 62.7403 92.6493 63.1989 95.4586 63.1989H106.897V69.9929H95.6306ZM79.2906 45.1389H104.317C104.317 44.0496 104.202 42.9029 103.973 41.6989C103.743 40.4376 103.342 39.2336 102.769 38.0869C102.195 36.8829 101.421 35.8223 100.447 34.9049C99.5293 33.9303 98.3539 33.1563 96.9206 32.5829C95.5446 32.0096 93.9106 31.7229 92.0186 31.7229C90.0119 31.7229 88.2346 32.1243 86.6866 32.9269C85.1959 33.6723 83.9059 34.7043 82.8166 36.0229C81.7273 37.2843 80.8959 38.7176 80.3226 40.3229C79.7493 41.9283 79.4053 43.5336 79.2906 45.1389ZM140.405 71.0249C136.163 71.0249 132.493 70.0216 129.397 68.0149C126.301 65.9509 123.922 63.1703 122.259 59.6729C120.597 56.1756 119.765 52.3056 119.765 48.0629C119.765 43.7629 120.683 39.8929 122.517 36.4529C124.352 32.9556 126.989 30.2036 130.429 28.1969C133.869 26.1329 137.997 25.1009 142.813 25.1009C147.457 25.1009 151.442 26.1043 154.767 28.1109C158.093 30.1176 160.644 32.8409 162.421 36.2809C164.256 39.7209 165.173 43.5623 165.173 47.8049V69.9929H157.175V61.0489H157.003C156.143 62.7116 154.968 64.3169 153.477 65.8649C152.044 67.3556 150.238 68.5883 148.059 69.5629C145.881 70.5376 143.329 71.0249 140.405 71.0249ZM142.469 64.2309C145.336 64.2309 147.859 63.5429 150.037 62.1669C152.273 60.7336 153.993 58.7843 155.197 56.3189C156.459 53.7963 157.089 50.9869 157.089 47.8909C157.089 44.8523 156.487 42.1289 155.283 39.7209C154.137 37.3129 152.474 35.4209 150.295 34.0449C148.117 32.6116 145.565 31.8949 142.641 31.8949C139.545 31.8949 136.879 32.6116 134.643 34.0449C132.465 35.4783 130.773 37.4276 129.569 39.8929C128.423 42.3009 127.849 45.0529 127.849 48.1489C127.849 51.1303 128.423 53.8536 129.569 56.3189C130.716 58.7269 132.379 60.6476 134.557 62.0809C136.736 63.5143 139.373 64.2309 142.469 64.2309ZM177.541 69.9929V7.21292H185.453V69.9929H177.541ZM197.459 69.9929V25.4449C197.459 22.4063 198.119 19.7116 199.437 17.3609C200.813 15.0102 202.677 13.1756 205.027 11.8569C207.435 10.4809 210.13 9.79292 213.111 9.79292H234.525V17.1029H214.057C211.535 17.1029 209.499 17.9056 207.951 19.5109C206.461 21.0589 205.715 23.0369 205.715 25.4449V37.6569H231.343V44.9669H205.715V69.9929H197.459ZM243.597 69.9929V26.1329H251.595V69.9929H243.597ZM247.639 19.1669C246.205 19.1669 244.944 18.6509 243.855 17.6189C242.823 16.5296 242.307 15.2683 242.307 13.8349C242.307 12.4016 242.823 11.1689 243.855 10.1369C244.944 9.04758 246.205 8.50292 247.639 8.50292C249.072 8.50292 250.305 9.04758 251.337 10.1369C252.426 11.1689 252.971 12.4016 252.971 13.8349C252.971 15.2683 252.426 16.5296 251.337 17.6189C250.305 18.6509 249.072 19.1669 247.639 19.1669ZM278.823 69.9929C274.924 69.9929 271.857 68.8749 269.621 66.6389C267.442 64.4029 266.353 61.3643 266.353 57.5229V15.1249H274.265V57.0069C274.265 58.8989 274.781 60.4183 275.813 61.5649C276.902 62.6543 278.393 63.1989 280.285 63.1989H289.143V69.9929H278.823ZM258.785 32.9269V26.1329H289.315V32.9269H258.785Z" fill="white" fill-opacity="0.25"/>
<path d="M304.664 8.40674L308.516 11.0832M304.664 8.40674L308.766 20.3191M304.664 8.40674L302.328 11.2464M297.617 22.9689L313.901 37.5155M297.617 22.9689L297.875 21.2928M297.617 22.9689L297.84 25.2869M299.419 32.4973L316 46.1385M299.419 32.4973L298.793 30.2388M299.419 32.4973L300.378 35.0106M301.338 37.5239L317.222 50.9209M301.338 37.5239L300.378 35.0106M301.338 37.5239L303.627 41.0096M316.466 53.7472L318.721 64.6332L318.807 62.0764M316.466 53.7472L318.796 54.1861M316.466 53.7472L312.455 50.4469L308.845 47.4767L304.622 42.5251L303.627 41.0096M318.796 54.1861L319.98 65.0116L318.807 62.0764M318.796 54.1861L322.205 50.5872L323.736 48.7268L323.468 48.5068L321.956 47.0747M320.822 46.0007L319.7 44.0931M320.822 46.0007L317.222 50.9209M320.822 46.0007L321.956 47.0747M318.663 40.4483L318.467 38.2342M318.663 40.4483L319.088 42.1117M318.663 40.4483L315.675 44.6257M318.918 33.5976L320.21 30.3916L321.419 28.9228L320.879 26.5807M318.918 33.5976L318.467 38.2342M318.918 33.5976L314.625 40.3142M318.994 22.3308L312.437 33.0269M318.994 22.3308L317.78 20.2642M318.994 22.3308L319.937 24.4557M316.565 18.1976L311.053 28.4404M316.565 18.1976L311.952 13.7205M316.565 18.1976L317.78 20.2642M308.516 11.0832L308.766 20.3191M308.516 11.0832L311.952 13.7205M319.7 44.0931L319.088 42.1117M319.7 44.0931L316.478 48.0099M308.766 20.3191L302.56 11.5094L302.328 11.2464M308.766 20.3191L309.59 23.1322M299.802 15.4074L311.053 28.4404M299.802 15.4074L300.533 14.2029M299.802 15.4074L298.869 17.7596M302.328 11.2464L301.264 12.9984M298.132 19.6167L312.437 33.0269M298.132 19.6167L298.869 17.7596M298.132 19.6167L297.875 21.2928M311.053 28.4404L310.362 25.7373M311.053 28.4404L311.905 30.9476M312.437 33.0269L311.905 30.9476M312.437 33.0269L313.169 35.2712M313.901 37.5155L320.879 26.5807M313.901 37.5155L313.169 35.2712M313.901 37.5155L314.625 40.3142M316 46.1385L319.088 42.1117M316 46.1385L315.675 44.6257M316 46.1385L316.478 48.0099M318.807 62.0764L317.539 53.152M298.167 27.9803L298.063 27.605L297.84 25.2869M298.167 27.9803L315.35 43.1129M298.167 27.9803L298.793 30.2388M315.35 43.1129L318.467 38.2342M315.35 43.1129L314.625 40.3142M315.35 43.1129L315.675 44.6257M320.879 26.5807L319.937 24.4557M317.222 50.9209L316.478 48.0099M317.222 50.9209L317.453 52.5477L317.539 53.152M309.59 23.1322L311.952 13.7205M309.59 23.1322L301.264 12.9984M309.59 23.1322L310.362 25.7373M301.264 12.9984L300.533 14.2029M310.362 25.7373L314.359 15.7007M310.362 25.7373L300.533 14.2029M311.905 30.9476L317.78 20.2642M311.905 30.9476L298.869 17.7596M313.169 35.2712L319.937 24.4557M313.169 35.2712L297.875 21.2928M314.625 40.3142L297.84 25.2869M315.675 44.6257L298.793 30.2388M316.478 48.0099L300.378 35.0106M317.539 53.152L321.956 47.0747M317.539 53.152L303.627 41.0096" stroke="#26D123"/>
</svg>
